<mxfile host="65bd71144e">
    <diagram id="N1935wcdalIhMBBnXmTo" name="Page-1">
        <mxGraphModel dx="2080" dy="488" grid="1" gridSize="10" guides="1" tooltips="1" connect="1" arrows="1" fold="1" page="1" pageScale="1" pageWidth="850" pageHeight="1100" math="0" shadow="0">
            <root>
                <mxCell id="0"/>
                <mxCell id="1" parent="0"/>
                <mxCell id="2" value="" style="shape=umlLifeline;perimeter=lifelinePerimeter;whiteSpace=wrap;html=1;container=1;dropTarget=0;collapsible=0;recursiveResize=0;outlineConnect=0;portConstraint=eastwest;newEdgeStyle={&quot;edgeStyle&quot;:&quot;elbowEdgeStyle&quot;,&quot;elbow&quot;:&quot;vertical&quot;,&quot;curved&quot;:0,&quot;rounded&quot;:0};participant=umlActor;fillColor=#fff2cc;strokeColor=#000000;" vertex="1" parent="1">
                    <mxGeometry x="-310" y="560" width="20" height="660" as="geometry"/>
                </mxCell>
                <mxCell id="3" value="" style="html=1;points=[];perimeter=orthogonalPerimeter;outlineConnect=0;targetShapes=umlLifeline;portConstraint=eastwest;newEdgeStyle={&quot;edgeStyle&quot;:&quot;elbowEdgeStyle&quot;,&quot;elbow&quot;:&quot;vertical&quot;,&quot;curved&quot;:0,&quot;rounded&quot;:0};fillColor=#fff2cc;strokeColor=#d6b656;" vertex="1" parent="2">
                    <mxGeometry x="5" y="160" width="10" height="240" as="geometry"/>
                </mxCell>
                <mxCell id="4" value="MedIN" style="shape=umlLifeline;perimeter=lifelinePerimeter;whiteSpace=wrap;html=1;container=1;dropTarget=0;collapsible=0;recursiveResize=0;outlineConnect=0;portConstraint=eastwest;newEdgeStyle={&quot;edgeStyle&quot;:&quot;elbowEdgeStyle&quot;,&quot;elbow&quot;:&quot;vertical&quot;,&quot;curved&quot;:0,&quot;rounded&quot;:0};fillColor=#e1d5e7;strokeColor=#9673a6;" vertex="1" parent="1">
                    <mxGeometry x="-120" y="560" width="130" height="660" as="geometry"/>
                </mxCell>
                <mxCell id="5" value="" style="html=1;points=[];perimeter=orthogonalPerimeter;outlineConnect=0;targetShapes=umlLifeline;portConstraint=eastwest;newEdgeStyle={&quot;edgeStyle&quot;:&quot;elbowEdgeStyle&quot;,&quot;elbow&quot;:&quot;vertical&quot;,&quot;curved&quot;:0,&quot;rounded&quot;:0};fillColor=#e1d5e7;strokeColor=#9673a6;" vertex="1" parent="4">
                    <mxGeometry x="60" y="80" width="10" height="60" as="geometry"/>
                </mxCell>
                <mxCell id="6" value="" style="html=1;points=[];perimeter=orthogonalPerimeter;outlineConnect=0;targetShapes=umlLifeline;portConstraint=eastwest;newEdgeStyle={&quot;edgeStyle&quot;:&quot;elbowEdgeStyle&quot;,&quot;elbow&quot;:&quot;vertical&quot;,&quot;curved&quot;:0,&quot;rounded&quot;:0};fillColor=#e1d5e7;strokeColor=#9673a6;" vertex="1" parent="4">
                    <mxGeometry x="60" y="560" width="10" height="60" as="geometry"/>
                </mxCell>
                <mxCell id="7" value="Teenuse Kasutaja (TTO klientsüsteem, TJT)" style="text;html=1;strokeColor=none;fillColor=none;align=center;verticalAlign=middle;whiteSpace=wrap;rounded=0;" vertex="1" parent="1">
                    <mxGeometry x="-370" y="510" width="140" height="50" as="geometry"/>
                </mxCell>
                <mxCell id="8" value="" style="html=1;points=[];perimeter=orthogonalPerimeter;outlineConnect=0;targetShapes=umlLifeline;portConstraint=eastwest;newEdgeStyle={&quot;edgeStyle&quot;:&quot;elbowEdgeStyle&quot;,&quot;elbow&quot;:&quot;vertical&quot;,&quot;curved&quot;:0,&quot;rounded&quot;:0};fillColor=#fff2cc;strokeColor=#d6b656;" vertex="1" parent="1">
                    <mxGeometry x="-305" y="640" width="10" height="80" as="geometry"/>
                </mxCell>
                <mxCell id="9" value="Päritakse Patsiend MPI viite alusel kehtiv Ravimiskeem" style="text;html=1;strokeColor=none;fillColor=none;align=right;verticalAlign=middle;whiteSpace=wrap;rounded=0;fontSize=11;" vertex="1" parent="1">
                    <mxGeometry x="-430" y="620" width="120" height="70" as="geometry"/>
                </mxCell>
                <mxCell id="10" value="&lt;div&gt;GET [base]/MedicationStatement/&lt;/div&gt;&lt;div&gt;$confirmed-medication-scheme&lt;/div&gt;&lt;div&gt;&lt;br style=&quot;text-wrap: wrap;&quot;&gt;&lt;/div&gt;" style="html=1;verticalAlign=bottom;startArrow=oval;startFill=1;endArrow=block;startSize=8;edgeStyle=elbowEdgeStyle;elbow=vertical;curved=0;rounded=0;" edge="1" parent="1" source="8" target="5">
                    <mxGeometry width="60" relative="1" as="geometry">
                        <mxPoint x="-295" y="854.58" as="sourcePoint"/>
                        <mxPoint x="-235" y="854.58" as="targetPoint"/>
                        <Array as="points">
                            <mxPoint x="-160" y="650"/>
                            <mxPoint x="-280" y="855"/>
                        </Array>
                    </mxGeometry>
                </mxCell>
                <mxCell id="11" value="FHIR Bundle" style="html=1;verticalAlign=bottom;endArrow=open;dashed=1;endSize=8;edgeStyle=elbowEdgeStyle;elbow=vertical;curved=0;rounded=0;" edge="1" parent="1" source="5" target="8">
                    <mxGeometry relative="1" as="geometry">
                        <mxPoint x="-120" y="930" as="sourcePoint"/>
                        <mxPoint x="-200" y="930" as="targetPoint"/>
                        <Array as="points">
                            <mxPoint x="-140" y="700"/>
                            <mxPoint x="-210" y="940"/>
                        </Array>
                    </mxGeometry>
                </mxCell>
                <mxCell id="12" value="Lõppkasutaja valib pikendada ravimiskeemi rida,&amp;nbsp;&lt;div&gt;Klientsüsteem kuvab vastava vormi&lt;/div&gt;" style="text;html=1;strokeColor=none;fillColor=none;align=right;verticalAlign=middle;whiteSpace=wrap;rounded=0;fontSize=11;" vertex="1" parent="1">
                    <mxGeometry x="-520" y="750" width="210" height="40" as="geometry"/>
                </mxCell>
                <mxCell id="13" value="" style="html=1;points=[];perimeter=orthogonalPerimeter;outlineConnect=0;targetShapes=umlLifeline;portConstraint=eastwest;newEdgeStyle={&quot;edgeStyle&quot;:&quot;elbowEdgeStyle&quot;,&quot;elbow&quot;:&quot;vertical&quot;,&quot;curved&quot;:0,&quot;rounded&quot;:0};fillColor=#fff2cc;strokeColor=#d6b656;" vertex="1" parent="1">
                    <mxGeometry x="-305" y="1100" width="10" height="100" as="geometry"/>
                </mxCell>
                <mxCell id="14" value="Ravimiskeem kuvatakse lõppkasutajale." style="text;html=1;strokeColor=none;fillColor=none;align=right;verticalAlign=middle;whiteSpace=wrap;rounded=0;fontSize=11;" vertex="1" parent="1">
                    <mxGeometry x="-430" y="680" width="120" height="70" as="geometry"/>
                </mxCell>
                <mxCell id="15" value="POST [base]/MedicationStatement/&lt;div&gt;$confirm&lt;/div&gt;" style="html=1;verticalAlign=bottom;startArrow=oval;startFill=1;endArrow=block;startSize=8;edgeStyle=elbowEdgeStyle;elbow=vertical;curved=0;rounded=0;" edge="1" parent="1" source="13" target="6">
                    <mxGeometry width="60" relative="1" as="geometry">
                        <mxPoint x="-260" y="1054.58" as="sourcePoint"/>
                        <mxPoint x="-200" y="1054.58" as="targetPoint"/>
                        <Array as="points">
                            <mxPoint x="-260" y="1120"/>
                            <mxPoint x="-90" y="1200"/>
                            <mxPoint x="-100" y="900"/>
                            <mxPoint x="-120" y="750"/>
                            <mxPoint x="-270" y="760"/>
                            <mxPoint x="-110" y="990"/>
                            <mxPoint x="-245" y="1055"/>
                        </Array>
                    </mxGeometry>
                </mxCell>
                <mxCell id="16" value="FHIR Bundle" style="html=1;verticalAlign=bottom;endArrow=open;dashed=1;endSize=8;edgeStyle=elbowEdgeStyle;elbow=vertical;curved=0;rounded=0;" edge="1" parent="1" source="6" target="13">
                    <mxGeometry relative="1" as="geometry">
                        <mxPoint x="-85" y="1130" as="sourcePoint"/>
                        <mxPoint x="-165" y="1130" as="targetPoint"/>
                        <Array as="points">
                            <mxPoint x="-130" y="1180"/>
                            <mxPoint x="-140" y="1170"/>
                            <mxPoint x="-100" y="960"/>
                            <mxPoint x="-140" y="1080"/>
                            <mxPoint x="-175" y="1140"/>
                        </Array>
                    </mxGeometry>
                </mxCell>
                <mxCell id="17" value="Lõppkasutaja on ravimiskeemi muudatustega lõpule jõudnud ja soovib Patsiendi ravimiskeemi kinnitada, uued retseptid kinnitada" style="text;html=1;strokeColor=none;fillColor=none;align=right;verticalAlign=middle;whiteSpace=wrap;rounded=0;fontSize=11;" vertex="1" parent="1">
                    <mxGeometry x="-550" y="1110" width="240" height="40" as="geometry"/>
                </mxCell>
                <mxCell id="18" value="Ravimiskeemi muudatuste kinnitamine" style="text;html=1;strokeColor=none;fillColor=none;align=center;verticalAlign=middle;whiteSpace=wrap;rounded=0;fontSize=11;fontStyle=2" vertex="1" parent="1">
                    <mxGeometry x="-260" y="1120" width="170" height="30" as="geometry"/>
                </mxCell>
                <mxCell id="19" value="" style="html=1;points=[];perimeter=orthogonalPerimeter;outlineConnect=0;targetShapes=umlLifeline;portConstraint=eastwest;newEdgeStyle={&quot;edgeStyle&quot;:&quot;elbowEdgeStyle&quot;,&quot;elbow&quot;:&quot;vertical&quot;,&quot;curved&quot;:0,&quot;rounded&quot;:0};fillColor=#e1d5e7;strokeColor=#9673a6;" vertex="1" parent="1">
                    <mxGeometry x="-60" y="970" width="10" height="70" as="geometry"/>
                </mxCell>
                <mxCell id="20" value="" style="html=1;points=[];perimeter=orthogonalPerimeter;outlineConnect=0;targetShapes=umlLifeline;portConstraint=eastwest;newEdgeStyle={&quot;edgeStyle&quot;:&quot;elbowEdgeStyle&quot;,&quot;elbow&quot;:&quot;vertical&quot;,&quot;curved&quot;:0,&quot;rounded&quot;:0};fillColor=#e1d5e7;strokeColor=#9673a6;" vertex="1" parent="1">
                    <mxGeometry x="-60" y="860" width="10" height="50" as="geometry"/>
                </mxCell>
                <mxCell id="21" value="" style="html=1;points=[];perimeter=orthogonalPerimeter;outlineConnect=0;targetShapes=umlLifeline;portConstraint=eastwest;newEdgeStyle={&quot;edgeStyle&quot;:&quot;elbowEdgeStyle&quot;,&quot;elbow&quot;:&quot;vertical&quot;,&quot;curved&quot;:0,&quot;rounded&quot;:0};fillColor=#fff2cc;strokeColor=#d6b656;" vertex="1" parent="1">
                    <mxGeometry x="-305" y="960" width="10" height="140" as="geometry"/>
                </mxCell>
                <mxCell id="22" value="Lõppkasutaja on ravimi andmetega lõpetanud. Andmed valideeritakse" style="text;html=1;strokeColor=none;fillColor=none;align=right;verticalAlign=middle;whiteSpace=wrap;rounded=0;fontSize=11;" vertex="1" parent="1">
                    <mxGeometry x="-470" y="960" width="160" height="40" as="geometry"/>
                </mxCell>
                <mxCell id="23" value="POST [base]/MedicationStatement/&lt;div&gt;$validate-custom&lt;br&gt;&lt;/div&gt;" style="html=1;verticalAlign=bottom;startArrow=oval;startFill=1;endArrow=block;startSize=8;edgeStyle=elbowEdgeStyle;elbow=vertical;curved=0;rounded=0;" edge="1" parent="1" source="21" target="19">
                    <mxGeometry width="60" relative="1" as="geometry">
                        <mxPoint x="-260" y="1054.58" as="sourcePoint"/>
                        <mxPoint x="-200" y="1054.58" as="targetPoint"/>
                        <Array as="points">
                            <mxPoint x="-80" y="970"/>
                            <mxPoint x="-150" y="1000"/>
                            <mxPoint x="-110" y="990"/>
                            <mxPoint x="-245" y="1055"/>
                        </Array>
                    </mxGeometry>
                </mxCell>
                <mxCell id="24" value="FHIR OperationOutcome" style="html=1;verticalAlign=bottom;endArrow=open;dashed=1;endSize=8;edgeStyle=elbowEdgeStyle;elbow=vertical;curved=0;rounded=0;" edge="1" parent="1" source="19" target="21">
                    <mxGeometry relative="1" as="geometry">
                        <mxPoint x="-85" y="1130" as="sourcePoint"/>
                        <mxPoint x="-165" y="1130" as="targetPoint"/>
                        <Array as="points">
                            <mxPoint x="-80" y="1040"/>
                            <mxPoint x="-120" y="1080"/>
                            <mxPoint x="-140" y="1080"/>
                            <mxPoint x="-175" y="1140"/>
                        </Array>
                    </mxGeometry>
                </mxCell>
                <mxCell id="25" value="&lt;div&gt;POST [base]/Task/$reimbursements&lt;br&gt;&lt;/div&gt;" style="html=1;verticalAlign=bottom;startArrow=oval;startFill=1;endArrow=block;startSize=8;edgeStyle=elbowEdgeStyle;elbow=vertical;curved=0;rounded=0;" edge="1" parent="1" source="3" target="20">
                    <mxGeometry width="60" relative="1" as="geometry">
                        <mxPoint x="-290" y="810" as="sourcePoint"/>
                        <mxPoint x="-55" y="810" as="targetPoint"/>
                        <Array as="points">
                            <mxPoint x="-120" y="860"/>
                            <mxPoint x="-105" y="790"/>
                            <mxPoint x="-275" y="995"/>
                        </Array>
                    </mxGeometry>
                </mxCell>
                <mxCell id="26" value="Päri võimalikud soodusmäärad" style="text;html=1;strokeColor=none;fillColor=none;align=center;verticalAlign=middle;whiteSpace=wrap;rounded=0;fontSize=11;fontStyle=2" vertex="1" parent="1">
                    <mxGeometry x="-260" y="860" width="170" height="20" as="geometry"/>
                </mxCell>
                <mxCell id="27" value="FHIR Task" style="html=1;verticalAlign=bottom;endArrow=open;dashed=1;endSize=8;edgeStyle=elbowEdgeStyle;elbow=vertical;curved=0;rounded=0;" edge="1" parent="1" source="20" target="3">
                    <mxGeometry relative="1" as="geometry">
                        <mxPoint x="-55" y="850" as="sourcePoint"/>
                        <mxPoint x="-290" y="850" as="targetPoint"/>
                        <Array as="points">
                            <mxPoint x="-150" y="910"/>
                            <mxPoint x="-120" y="860"/>
                            <mxPoint x="-85" y="830"/>
                            <mxPoint x="-205" y="1060"/>
                        </Array>
                    </mxGeometry>
                </mxCell>
                <mxCell id="28" value="Soodusmäärade valiku kuvamine ja valiku tegemine lõppkasutaja või süsteemi poolt" style="text;html=1;strokeColor=none;fillColor=none;align=right;verticalAlign=middle;whiteSpace=wrap;rounded=0;fontSize=11;" vertex="1" parent="1">
                    <mxGeometry x="-510" y="900" width="200" height="35" as="geometry"/>
                </mxCell>
                <mxCell id="29" value="&amp;nbsp;Muudetud andmestiku valideerimine&amp;nbsp;" style="text;html=1;strokeColor=none;fillColor=none;align=center;verticalAlign=middle;whiteSpace=wrap;rounded=0;fontSize=11;fontStyle=2" vertex="1" parent="1">
                    <mxGeometry x="-260" y="970" width="170" height="30" as="geometry"/>
                </mxCell>
                <mxCell id="30" value="Valideerimisvigade kuvamine lõppkasutajale" style="text;html=1;strokeColor=none;fillColor=none;align=right;verticalAlign=middle;whiteSpace=wrap;rounded=0;fontSize=11;" vertex="1" parent="1">
                    <mxGeometry x="-430" y="1040" width="120" height="40" as="geometry"/>
                </mxCell>
                <mxCell id="31" value="Lõppkasutaja on sisestanud andmed, Klientsüsteem pärib kehtivad soodusmäärad" style="text;html=1;strokeColor=none;fillColor=none;align=right;verticalAlign=middle;whiteSpace=wrap;rounded=0;fontSize=11;" vertex="1" parent="1">
                    <mxGeometry x="-520" y="820" width="210" height="40" as="geometry"/>
                </mxCell>
            </root>
        </mxGraphModel>
    </diagram>
</mxfile>